<svg xmlns="http://www.w3.org/2000/svg" viewBox="0 0 1198.14 729.19"><defs><style>.cls-1{fill:#fff;}</style></defs><g id="Camada_2" data-name="Camada 2"><g id="Camada_1-2" data-name="Camada 1"><path d="M61.91,282.9c3.58-16.33,7.24-32.46,10.63-48.65,4.57-21.82,9-43.68,13.35-65.54,1-5.16,1.7-10.41,2.65-15.59a6.56,6.56,0,0,0-1.07-4.94C63.31,109,37.68,70.86,12.1,32.64Q6.69,24.57,1.29,16.49C.9,15.91.55,15.3,0,14.4c2-.07,3.58-.18,5.22-.2q18.36-.18,36.71-.32,35.64-.29,71.27-.55,32.52-.22,65-.41,52.91-.27,105.83-.49,40.43-.21,80.86-.48,30.72-.22,61.43-.56c12.32-.14,24.63-.39,36.94-.68a3.45,3.45,0,0,1,3.23,1.92q18,26.37,36,52.7c1.45,2.11,3.05,4.12,4.42,6.28a5.69,5.69,0,0,0,5.34,2.82c13.92.06,27.83.4,41.75.42Q623,75,692,75a11.51,11.51,0,0,0,5.25-1.29c24.29-12,48.48-24.24,72.93-35.92C798.05,24.49,826.56,12.66,855,.63A9.73,9.73,0,0,1,858.7.06q43,0,85.92,0,73.56,0,147.12,0Q1124,0,1156.3.13c11.83.06,23.67.29,35.5.47,2,0,3.94.24,6.34.4-.73,1-1.2,1.73-1.71,2.4-17.31,22.41-34.74,44.73-51.9,67.25-14.54,19.09-28.75,38.43-43.13,57.63-2.54,3.4-5.13,6.76-7.86,10a14.5,14.5,0,0,0-3.22,13c2.92,14.9,5.66,29.84,8.54,44.75,2.76,14.28,5.42,28.58,8.44,42.8q8.22,38.7,16.83,77.31,9.6,42.69,19.65,85.27c10.75,45.9,21.66,91.77,32.43,137.67,4.11,17.51,8,35.06,12,52.59.07.3.09.62.17,1.21-1.83.29-3.61.68-5.4.84-7.88.72-15.77,1.43-23.66,2-12.76,1-25.53,1.84-38.29,2.73-8,.55-16,1.05-23.94,1.58q-16.63,1.13-33.27,2.27c-7.34.51-14.68,1-22,1.61-3.18.25-6.36.62-9.54,1a17.37,17.37,0,0,0-2.36.63c.82,1.35,1.42,2.56,2.22,3.63,4.84,6.46,9.65,13,14.61,19.32q24.51,31.41,49.1,62.75c1.42,1.82,2.8,3.7,4.11,5.6a27.89,27.89,0,0,1,1.52,3,10.88,10.88,0,0,1-2,.63c-4.37.48-8.74,1-13.12,1.36q-14.69,1.4-29.38,2.74c-7.8.71-15.61,1.37-23.41,2.12-6.52.63-13,1.4-19.56,2-7.87.79-15.75,1.57-23.64,2.24-11.23,1-22.47,1.82-33.71,2.7-7.1.56-14.2,1.08-21.3,1.61-10,.74-19.93,1.52-29.9,2.23-8.14.58-16.28,1.1-24.42,1.62q-18,1.14-35.92,2.23c-9,.55-18,1.12-27.07,1.56q-25.27,1.21-50.57,2.28c-10.55.44-21.1.76-31.65,1.11-18.31.62-36.61,1.33-54.92,1.79q-24.46.6-48.94.75-45.24.32-90.47.39-20.64,0-41.28-.19c-22.23-.25-44.47-.5-66.69-1q-31.79-.68-63.56-1.87c-20.86-.78-41.71-1.8-62.56-2.88-19.16-1-38.32-2.22-57.48-3.32-17.17-1-34.34-1.91-51.51-2.89a21.08,21.08,0,0,1-3-.66c.85-1.42,1.44-2.52,2.13-3.56q17.28-26.12,34.58-52.21c7.85-11.78,15.81-23.48,23.66-35.26,2-3,3.78-6.12,5.63-9.21.47-.8.81-1.67,1.36-2.82a41.4,41.4,0,0,0-4.25-.75q-10.77-.78-21.55-1.43c-13.41-.8-26.82-1.51-40.23-2.36-12.61-.8-25.22-1.71-37.82-2.6q-23.58-1.66-47.14-3.38c-3.17-.23-6.33-.65-9.8-1,.32-2.1.52-4,.9-5.84,3.67-18.17,7.44-36.32,11-54.51,2.56-12.93,4.81-25.93,7.38-38.86,3-15,6.28-30,9.27-45.09,2.81-14.19,5.33-28.43,8.08-42.63,1.91-9.89,4-19.74,6-29.61,1.61-8.07,3.09-16.17,4.77-24.23a4,4,0,0,0-1.25-4.07c-3.07-2.92-6-6-9.26-8.71q-37.65-32-75.4-63.95C63,283.89,62.53,283.46,61.91,282.9ZM451.16,138c-.23,1.75-.44,2.92-.53,4.1-.36,4.87-.76,9.73-1,14.59-.62,12.14-1.16,24.28-1.75,36.42q-.44,8.73-1,17.46a13.35,13.35,0,0,1-.72,2.63c-1.09-.56-1.9-.88-2.61-1.35-1.32-.89-2.63-1.82-3.88-2.81A296.31,296.31,0,0,0,412,189.66c-9.21-5.77-18.4-11.59-27.61-17.37-.64-.41-1.36-.7-2.39-1.22-.31,2.06-.62,3.77-.81,5.49-1.13,10.33-2.21,20.66-3.37,31a2.8,2.8,0,0,0,1.15,2.86c3.18,2.55,6.28,5.21,9.39,7.84.46.39.83.87,1.47,1.54-.9.08-1.43.14-2,.17-2.3.13-2.67.45-3.17,2.75a9.38,9.38,0,0,0-.2,1.18c-1,10.26-2,20.52-3,30.78-.71,7.64-1.27,15.29-2,22.93-.22,2.44-.69,4.86-1.06,7.31a7.62,7.62,0,0,1-1.1.16c-5.6,0-11.2,0-16.8,0-1.68,0-3.35-.22-5-.34A1.37,1.37,0,0,1,354.1,283c.06-.48.13-.95.19-1.43.46-3.4,1-6.8,1.36-10.21.58-5.48,1-11,1.54-16.47Q358.57,240.4,360,226c.65-6.52,1.36-13,2-19.56.93-9.78,1.85-19.57,2.7-29.36.61-7.09,1.05-14.19,1.64-21.28.73-8.6,1.53-17.19,2.31-25.79.48-5.25,1-10.5,1.5-15.75.14-1.4.49-2.77.74-4.1h22.67c0,1.72.12,3.31,0,4.88-.84,9.07-1.74,18.13-2.63,27.2a34.3,34.3,0,0,0-.13,6.56h28.66c.14-2,.29-3.92.42-5.82.41-6.46.77-12.93,1.24-19.38.5-6.86,1.18-13.7,1.63-20.56.41-6.22.66-12.45.89-18.68.11-3,0-6,0-9.34H421c-16.24,0-32.48,0-48.72,0-8.55,0-17.11.27-25.66.45-2.33.05-2.41.11-2.62,2.39-.78,8.75-1.49,17.52-2.26,26.27-.84,9.55-1.66,19.11-2.6,28.65-1.31,13.44-2.71,26.87-4.11,40.3-1.16,11.13-2.37,22.25-3.55,33.38-1.54,14.7-3,29.41-4.63,44.1-1.22,11-2.61,21.9-4,32.83-.35,2.83-.94,5.63-1.47,8.71-5.25-.73-10.31-1.32-15.33-2.18-3.41-.59-4-1.23-4.14-4.81a79,79,0,0,1,.07-11.72c1.24-12.16,2.34-24.33,5.05-36.3,1.14-5,1.48-10.27,2.08-15.42,1.73-14.85,3.46-29.69,5.07-44.54,1.52-14,2.9-28,4.28-42,.18-1.79,0-3.61,0-5.43H270.15c-.8,6.32-1.6,12.5-2.37,18.68-1,8.17-2,16.34-3.06,24.5q-2,15.69-4.16,31.37-1.5,11-3.16,22.06c-.49,3.25-1,3.51-4.33,2.91l-.24-.06c-5-1.25-10.07-2.52-15.12-3.74-5.2-1.26-10.39-2.57-15.63-3.66-3.12-.65-4.06-1.35-4.1-4.51a41.66,41.66,0,0,1,.48-6.2q2.1-15.19,4.31-30.38c2.08-14.31,4.29-28.6,6.26-42.93,1.39-10.13,2.5-20.3,3.71-30.45q1.37-11.43,2.65-22.86c.29-2.51.45-5,.69-7.74-1.09-.11-1.86-.24-2.64-.25-9.68-.16-19.35-.38-29-.42q-26-.12-52.08-.06c-8.79,0-17.59.22-26.39.37a5.11,5.11,0,0,0-3.11.53c.92,1.16,1.74,2.24,2.61,3.27Q143.23,101.09,161,122c5.36,6.36,10.53,12.87,15.85,19.27a6.74,6.74,0,0,1,1.44,6c-1.78,10-3.38,20-5.12,30-2.28,13.14-4.67,26.27-6.93,39.42-1.84,10.78-3.54,21.59-5.34,32.39a5,5,0,0,0,2,5.33Q204.06,288.09,245,322c2.16,1.78,4.19,3.72,6.22,5.65a17.38,17.38,0,0,1,1.7,2.4c-1.4.13-2.24.27-3.08.27-2,0-4-.09-6-.06-2.36,0-2.55.17-2.93,2.52-1.47,8.91-2.88,17.82-4.35,26.73-1.67,10.17-3.34,20.34-5.08,30.5-2.45,14.33-5,28.64-7.43,43-1.58,9.37-2.85,18.8-4.5,28.16-3.14,17.86-6.47,35.69-9.67,53.54-.46,2.56-.7,5.16-1,7.7,5,1.36,52.8,3.33,57.34,2.38,7.87-54.35,15.56-108.8,23.81-163.56,1.2.75,2,1.22,2.78,1.76,2.54,1.8,5.06,3.64,7.61,5.44a21.52,21.52,0,0,0,2.07,1.12c.18-.67.29-1,.34-1.27,1.58-10.35,3.22-20.69,4.73-31,1.68-11.54,3.24-23.11,4.88-34.65.2-1.34.59-2.65.92-4a1.77,1.77,0,0,1,2.13-1.47,17.69,17.69,0,0,1,3.92.87c1.49.61,1.83,1.51,1.61,3.09-.7,5.23-1.46,10.44-2.12,15.67-.29,2.35-.4,4.72-.62,7.31,29.12.73,57.94.4,86.74.49a10.94,10.94,0,0,0,.39-1.45c.54-4.76,1-9.53,1.59-14.3.88-7.69,1.81-15.39,2.69-23.09.69-6,1.51-12.05,2-18.11.56-7.49.75-15,1.19-22.51.13-2.2.53-4.39.86-7l7.32,5.18c.31-1.86.65-3.32.79-4.79.87-9,1.68-18,2.54-27,.23-2.42.59-4.84.9-7.36a8.52,8.52,0,0,1,1.25.28c6.55,2.71,12.4,6.6,18.09,10.76A3.36,3.36,0,0,1,446,218c0,1.52-.09,3-.19,4.55-.58,8.94-1.22,17.86-1.74,26.8-.32,5.35-.38,10.71-.72,16.06q-1,16-2.21,32.05c-.49,6.45-1.2,12.89-1.79,19.34-.22,2.43-.39,4.87-.6,7.53,3.3.18,6.32.48,9.34.51,10.72.08,21.44.05,32.16.13a3.83,3.83,0,0,0,3.24-1.54c3.44-4,7-8,10.46-11.9.45-.51,1-1,1.71-1.68.31,4.94-.68,9.51-.21,14.12,1.84.09,3.51.22,5.19.27,6.79.2,13.58.42,20.38.54a12.6,12.6,0,0,0,5.58-.84c0-.83,0-1.61,0-2.4.16-6.4.3-12.79.49-19.19q.61-20.61,1.27-41.24c.2-6.15.38-12.31.71-18.45.49-9.42,1.26-18.83,1.62-28.25.51-13.19.74-26.38,1.12-39.57.24-8.47.55-16.94.82-25.41.12-3.74.22-7.48.33-11.37H504.1c-1.6,11.92-1.34,23.85-3.19,36-1.23-.78-2.11-1.29-2.93-1.88-5.85-4.19-11.72-8.35-17.51-12.63-7.84-5.81-15.61-11.72-23.43-17.56C455.26,140.74,453.41,139.52,451.16,138Zm625.53,375.57c-.12-1.35-.14-2.38-.33-3.39-.53-2.82-1.14-5.63-1.7-8.45-2.49-12.38-4.87-24.77-7.46-37.13-3.54-16.89-7.3-33.73-10.84-50.62-3.21-15.32-6.24-30.68-9.37-46-3.28-16.12-6.63-32.24-9.86-48.37-2.89-14.5-5.67-29-8.46-43.52-2.22-11.62-4.45-23.23-6.54-34.86-1.39-7.79-2.46-15.63-3.81-23.42-2.64-15.35-5.37-30.69-8.06-46-.41-2.34-.76-4.69-1.14-7a9.43,9.43,0,0,0-1.31-.17q-22.8-.1-45.59-.17c-1.56,0-3.13.28-4.85.45.09,1.35.11,2.46.26,3.56.64,4.67,1.29,9.34,2,14,2,13.27,4,26.54,6,39.8q2.73,17.53,5.61,35c2.4,14.58,4.89,29.15,7.36,43.72,2.32,13.62,4.61,27.25,7,40.86s4.93,27.36,7.37,41c2.55,14.24,5,28.48,7.59,42.71,2.93,16.2,5.94,32.37,8.89,48.57,2.08,11.39,4.07,22.8,6.16,34.2.5,2.73,1.22,5.43,1.86,8.26C1037.24,515.77,1056.79,515.11,1076.69,513.52ZM844.75,75.13c0,1.07-.06,2,0,3,.63,8.37,1.25,16.74,2,25.1.91,10.83,1.9,21.65,2.85,32.47,1.31,14.89,2.57,29.78,3.94,44.66.7,7.56,1.57,15.1,2.39,22.65q1.88,17.39,3.8,34.78,1.2,10.84,2.48,21.68c1.2,10.23,2.43,20.46,3.63,30.7,1,8.73,2.05,17.46,3.09,26.19.3,2.51.67,5,1,7.71h2.78c11.92,0,23.84.08,35.76,0,15-.11,30.06-.35,45.1-.55,1.15,0,2.31-.23,3.63-.37-.12-1.72-.17-3.15-.34-4.56-.88-7-1.73-14-2.72-20.92-1.46-10.28-3-20.55-4.58-30.81-1.6-10.59-3.37-21.15-4.86-31.74-1.77-12.5-3.33-25-5-37.55a5,5,0,0,0-2.16-3.79c-3.9-2.63-7.78-5.33-11.66-8-.68-.47-1.35-1-2.19-1.57,3.58-2.72,6.87-5.25,10.21-7.72a2.83,2.83,0,0,0,1.33-2.81c-.2-2.55-.1-5.12-.23-7.67-.23-4.39-.41-8.79-.86-13.15-.78-7.47-1.75-14.92-2.64-22.38s-1.74-14.76-2.7-22.12c-.67-5.23-1.57-10.43-2.23-15.66-.52-4-.8-8.11-1.25-12.16-.2-1.8-.54-3.59-.81-5.34ZM582.51,285.9c0-1,0-2,0-2.91q.22-26.5.47-53c.06-6.72.14-13.43.16-20.15,0-15,.15-29.92,0-44.88-.1-8.38.39-6.59-5.8-11.14-7-5.16-14.22-10.07-21.35-15.09a4.39,4.39,0,0,0-.82-.34c-.88,4.68-4.16,182.92-3.42,186.58,18.25,1,36.59.78,55.08,1.46-.21,9.82-.41,19.3-.61,28.66-.4.19-.54.31-.67.31-7-.09-14.07-.25-21.11-.28q-8.5,0-17,.21a9.25,9.25,0,0,0-7.07,3,6,6,0,0,1-1.78,1.2c-1.63.84-3.29,1.63-4.94,2.44-3.47,1.69-2.87.76-3,4.52-.29,10.15-.64,20.3-.93,30.44-.08,2.62,0,5.24,0,8h89.95c.05-.79.13-1.41.12-2-.12-15-.17-30.07-.4-45.1-.22-14.79-.64-29.58-.94-44.37q-.51-25.19-.95-50.36c-.24-14.72-.33-29.43-.61-44.14-.12-6.63-.6-13.26-.79-19.89a5.32,5.32,0,0,0-2.56-4.55c-6-4.2-12.08-8.39-18.07-12.66-2.27-1.62-4.39-3.45-6.6-5.15a6.22,6.22,0,0,0-1.22-.56c-.14,1.21-.35,2.23-.37,3.25-.19,9.11-.45,18.22-.48,27.34-.07,25.44,0,50.87,0,76.31v2.93Zm76.11-147.85a30,30,0,0,0-.6,4.19c0,5.36.07,10.72.26,16.07.31,9.19.79,18.37,1.08,27.56.22,7,.27,14.07.34,21.11a2.82,2.82,0,0,0,1.35,2.57q21.81,15.27,43.61,30.56c5.38,3.75,10.86,7.35,16.28,11,.82.56,1.54,1.26,2.46,2-2.67,1.45-5.36.19-7.87,1.1.85,10.21,1.92,20.35,2.43,30.72l-24.75.4c-.25-5-.4-9.91-.77-14.75s-.39-9.73-1.5-14.74c-9.87-.42-19.62.27-29.53.59.1,23,.86,45.63,1.6,68.32h86.71c0-.59.09-1,.07-1.51-.16-4.08-.35-8.15-.49-12.23-.4-11.34-.75-22.69-1.18-34-.12-3.43-.37-6.86-.63-10.29q-.76-9.91-1.61-19.82c-.45-5.26-1-10.5-1.46-15.75a5.72,5.72,0,0,0-2.54-4.4c-2.1-1.45-4.1-3.06-6.19-4.53q-19.62-13.82-39.26-27.59c-1.25-.87-2.45-1.8-3.63-2.75a9.4,9.4,0,0,1-3.64-7c-.18-3.43-.27-6.87-.37-10.3a9.55,9.55,0,0,1,.21-1.53c4.69-.44,20.89-.25,22.76.29v7.37c9.81.34,19.42,1.3,29.3.78a22.88,22.88,0,0,0,.13-2.47c-.15-2.32-.5-4.62-.51-6.93-.07-10.48,0-21-.07-31.43,0-.85-.07-1.7-.12-2.63ZM359.72,430.63l.16.52c.94.1,1.89.28,2.83.3,12,.32,24,.69,36,.9,12.55.21,25.11.26,37.66.37q16.68.15,33.35.26c26.15.13,52.3.33,78.45.33q60.71,0,121.41-.25,42-.13,84-.48c13.27-.09,26.55-.27,39.82-.47q27.7-.45,55.4-1c12.87-.26,25.74-.61,38.6-.93,8.48-.21,16.95-.41,25.42-.66,2-.06,4-.3,6-.45l0-.51c-.79-.29-1.59-.6-2.4-.88q-26.19-8.94-52.39-17.9a14,14,0,0,0-4.92-.8c-9,.18-17.91.31-26.86.47-15.43.29-30.85.66-46.28.87-11.12.16-22.24.13-33.35.18-21.76.11-43.51.25-65.26.31s-43.35.08-65,.05q-92.38-.12-184.76-.32c-8.23,0-16.46-.47-24.69-.66a9.17,9.17,0,0,0-3.45.58c-7.73,3-15.43,6.2-23.14,9.3s-15.58,6.22-23.36,9.36C361.81,429.56,360.77,430.13,359.72,430.63ZM830.54,97.09c-.65-.07-1-.13-1.29-.13-11.19,0-22.39,0-33.59,0a3.38,3.38,0,0,0-2.8,1.43c-6.34,7.42-12.72,14.8-19.06,22.22-1.24,1.46-2.32,3.06-3.53,4.55a6.35,6.35,0,0,0-1.19,5.85c.84,3.5,1.61,7,2.43,10.51.92,4,1.87,7.91,2.84,12l23.49,1.77c0,3-.2,5.8,0,8.57,1,11.22,2.13,22.43,3.07,33.65,1.08,12.82,1.91,25.66,3,38.48,1.12,13,2.45,25.92,3.7,38.88,1.33,13.84,2.64,27.68,4,41.51.25,2.52.27,5.09,1.33,7.53h38.8c-.19-2.92-.29-5.69-.58-8.45q-1.26-12.15-2.65-24.3c-1-8.89-2.11-17.76-3.06-26.66s-1.82-18-2.66-27c-.5-5.41-.87-10.83-1.34-16.24-.35-4-.83-7.95-1.12-11.93-.17-2.31.06-4.65-.15-7-1.06-11.77-2.25-23.53-3.31-35.31-1.12-12.57-2.14-25.16-3.22-37.73-.67-7.88-1.34-15.77-2.08-23.64C831.37,102.88,830.92,100.05,830.54,97.09Zm115.92-24c.16,2.23.27,4.21.46,6.19.57,5.88,1.07,11.77,1.8,17.64,1.27,10.22,2.67,20.43,4,30.64.71,5.23,1.43,10.45,2.22,15.66.31,2.08.4,2.1,2.36,2.24,2.48.17,4.95.38,7.43.4,13,.08,25.91.09,38.87.18a3.32,3.32,0,0,0,2.86-1.32c3-3.63,6.13-7.18,9.15-10.8,16.56-19.93,32.51-40.36,50-59.53a13.16,13.16,0,0,0,.89-1.3ZM627.9,528.5l.52,0c-1.21,8.15,1.33,15.34,5.29,22.23a27.54,27.54,0,0,0,12.69,11.65c8.75,4,17,2.86,24.46-3.18a28.74,28.74,0,0,0,7.25-8.86,42.64,42.64,0,0,0,4.71-28.3A43.54,43.54,0,0,0,674,501.81a23.61,23.61,0,0,0-15.74-9.17c-6.61-.89-12.53.39-17.8,4.57a30.38,30.38,0,0,0-11.15,18C628.36,519.53,628.33,524.06,627.9,528.5Zm79.89,33.3v-6.17c0-2,0-4,0-6s-.33-3.79.32-5.69c.86,0,1.58,0,2.3,0a3.62,3.62,0,0,1,3.68,2.16c.5,1,1,2,1.41,3,1.35,3.41,2.66,6.85,4,10.27.29.72.64,1.42,1,2.29,5.31,0,10.5,0,15.69,0a16.83,16.83,0,0,0,2.61-.48c-.61-1.46-1-2.58-1.52-3.65-2.56-5.33-5.11-10.67-7.76-15.95a2.8,2.8,0,0,1,.3-3.46A22.17,22.17,0,0,0,734.52,527a45.35,45.35,0,0,0-1.21-19.22,19.33,19.33,0,0,0-9.49-11.86,20.85,20.85,0,0,0-9.21-2.42c-6.22-.26-12.45-.37-18.68-.46a44.49,44.49,0,0,0-5,.4,2.08,2.08,0,0,0-2,2.23c0,.72-.07,1.44,0,2.15.25,6.79.54,13.58.77,20.37.4,12.22.75,24.44,1.15,36.67a52.84,52.84,0,0,0,.48,5.48c.24,1.74.75,2.19,2.49,2.31a29.1,29.1,0,0,0,4.07,0C701.05,562.41,704.29,562.1,707.79,561.8Zm-217-16.87h-2.59c-4.8-.06-9.6,0-14.4-.2a63.08,63.08,0,0,1-7.85-.89c-1.81-.29-2.19-.93-2.23-2.81a9.89,9.89,0,0,1,0-1.44c.21-1.93.84-2.73,2.74-3.12a22,22,0,0,1,3.81-.36c4.63-.13,9.27-.11,13.9-.34,3.36-.17,4.37-1.3,4.45-4.66s0-7,0-10.55a12.48,12.48,0,0,0-.19-1.46l-22.09-.65v-7.94l25.05-.63a122.49,122.49,0,0,0,.54-16.33c-2.9-.17-5.51-.41-8.13-.44C477,493,470.07,493,463.19,493c-3.59,0-7.19.23-10.78.47-2,.12-2.14.39-2.28,2.34q-1.38,18.77-2.73,37.54-1,13.27-1.88,26.55c0,.61,0,1.23,0,1.81,3,.49,42.26.37,43.84-.07C489.82,556.16,490.28,550.68,490.77,544.93Zm75.86-27.7a92.41,92.41,0,0,0,5.49-15.43c.49-1.93-.61-3.16-2.24-4-5-2.66-10-4.84-15.72-5.54-9.66-1.21-18.39,3.43-22.35,12.15a26,26,0,0,0-2,11.94c.24,6.43,2.83,11.57,8.25,15.14a41.3,41.3,0,0,0,4.58,2.61c1.93,1,4,1.7,5.89,2.67a44.54,44.54,0,0,1,5,2.89,3.38,3.38,0,0,1,1.45,3.79,3.11,3.11,0,0,1-3.21,2.39,13.43,13.43,0,0,1-4.69-.62,31.72,31.72,0,0,1-12-7.33,26.31,26.31,0,0,0-2.39-1.91,7.7,7.7,0,0,0-.64.77A84.26,84.26,0,0,0,526,551a2.67,2.67,0,0,0,.63,2.86,16.41,16.41,0,0,0,1.88,1.85c5.82,4.59,12.26,7.8,19.74,8.55,8.4.84,17.25-2.66,21.59-11.56a29,29,0,0,0,2.61-9.67c.71-6.66-.89-12.59-6-17.15a44.32,44.32,0,0,0-6.43-4.58c-2.38-1.45-5-2.56-7.41-3.91a27.91,27.91,0,0,1-4.2-2.76c-2.05-1.7-1.72-4.11.72-5.11a3.92,3.92,0,0,1,2.76.07c3.42,1.51,6.8,3.15,10.14,4.83C563.44,515.19,564.82,516.14,566.63,517.23Zm229.56,16.93a11.35,11.35,0,0,0-.88,1.64c-1.16,3.82-2.43,7.61-3.37,11.48-.87,3.6-.14,5.07,3,7,5.88,3.54,12.09,6.2,19,6.7A24.11,24.11,0,0,0,828.1,558c4.12-2.39,7.19-5.78,7.86-10.61a59.34,59.34,0,0,0,.5-11.22,18.14,18.14,0,0,0-9.22-15.37c-2.46-1.46-5.13-2.58-7.72-3.81s-5-2.18-7.38-3.43a13,13,0,0,1-3-2.37,2.5,2.5,0,0,1-.68-2.86,2.14,2.14,0,0,1,2.66-1.07,53.62,53.62,0,0,1,6.92,1.79c2.63.93,5.13,2.22,7.73,3.26a28.6,28.6,0,0,0,3.42.9c1-4.76,2-9.18,2.93-13.63A4,4,0,0,0,830,495.2c-.7-.39-1.4-.78-2.11-1.13-6-3-12.43-3.89-19.07-3.9a15.19,15.19,0,0,0-12.38,5.69c-3.58,4.33-6.07,9.22-5.58,14.89.88,10.18,5.32,18,15.77,21.19a45.77,45.77,0,0,1,4.92,1.89c1.68.73,3.35,1.52,5,2.41A8.17,8.17,0,0,1,818.7,538c1.67,2,.85,4.34-1.62,5a10.8,10.8,0,0,1-5.44-.35,30.93,30.93,0,0,1-10.45-5.19C799.66,536.35,798,535.36,796.19,534.16ZM579.78,494.38c-.18,1.71-.47,3.45-.54,5.19-.19,4.87-.41,9.75-.39,14.62.07,15.82.24,31.65.38,47.47,0,.54.1,1.07.17,1.66h15.76c.13-3.16.27-6.18.38-9.21s.18-6,.28-9.2c2.62,0,4.93.05,7.23,0,9.36-.25,15.62-4.93,18.29-13.76a43.32,43.32,0,0,0,1.42-17.32,26.58,26.58,0,0,0-3-10.29,16.16,16.16,0,0,0-12.26-8.66c-9-1.29-18.17-.94-27.28-.8C580.19,494.07,580.12,494.15,579.78,494.38ZM753.53,511c1.75,16.85,2.59,33.58,3.78,50.53,5.56,0,10.92.55,16.33.49.05-.91.12-1.47.09-2q-.6-11.12-1.24-22.25c-.47-8.21-1-16.42-1.43-24.63-.11-2.13.41-2.72,2.6-2.87,2.78-.2,5.58-.18,8.38-.27.85,0,1.7-.08,2.85-.13-.51-5.22-.94-10.21-1.5-15.18-.26-2.32-.73-2.63-3.09-2.55-1.68.06-3.35.24-5,.29-11.1.35-22.2.65-33.3,1-2.71.09-2.94.3-2.85,3,.14,4.23.46,8.45.74,12.67a12,12,0,0,0,.47,1.94Zm-253.7,14c0,4.61-.91,8.91-.24,13.36,6.73,1,13.23.46,20,.57,0-4.61.88-8.9.4-13.52C513.3,524.75,506.78,525.21,499.83,525.06Z"/><path class="cls-1" d="M451.16,138c2.25,1.57,4.1,2.79,5.88,4.12,7.82,5.84,15.59,11.75,23.43,17.56,5.79,4.28,11.66,8.44,17.51,12.63.82.59,1.7,1.1,2.93,1.88,1.85-12.19,1.59-24.12,3.19-36h28.84c-.11,3.89-.21,7.63-.33,11.37-.27,8.47-.58,16.94-.82,25.41-.38,13.19-.61,26.38-1.12,39.57-.36,9.42-1.13,18.83-1.62,28.25-.33,6.14-.51,12.3-.71,18.45q-.66,20.63-1.27,41.24c-.19,6.4-.33,12.79-.49,19.19,0,.79,0,1.57,0,2.4a12.6,12.6,0,0,1-5.58.84c-6.8-.12-13.59-.34-20.38-.54-1.68,0-3.35-.18-5.19-.27-.47-4.61.52-9.18.21-14.12-.74.72-1.26,1.17-1.71,1.68-3.5,3.95-7,7.88-10.46,11.9a3.83,3.83,0,0,1-3.24,1.54c-10.72-.08-21.44-.05-32.16-.13-3,0-6-.33-9.34-.51.21-2.66.38-5.1.6-7.53.59-6.45,1.3-12.89,1.79-19.34q1.23-16,2.21-32.05c.34-5.35.4-10.71.72-16.06.52-8.94,1.16-17.86,1.74-26.8.1-1.51.15-3,.19-4.55a3.36,3.36,0,0,0-1.39-2.92c-5.69-4.16-11.54-8.05-18.09-10.76a8.52,8.52,0,0,0-1.25-.28c-.31,2.52-.67,4.94-.9,7.36-.86,9-1.67,18-2.54,27-.14,1.47-.48,2.93-.79,4.79L413.69,238c-.33,2.63-.73,4.82-.86,7-.44,7.5-.63,15-1.19,22.51-.45,6.06-1.27,12.08-2,18.11-.88,7.7-1.81,15.4-2.69,23.09-.55,4.77-1.05,9.54-1.59,14.3a10.94,10.94,0,0,1-.39,1.45c-28.8-.09-57.62.24-86.74-.49.22-2.59.33-5,.62-7.31.66-5.23,1.42-10.44,2.12-15.67.22-1.58-.12-2.48-1.61-3.09a17.69,17.69,0,0,0-3.92-.87,1.77,1.77,0,0,0-2.13,1.47c-.33,1.32-.72,2.63-.92,4-1.64,11.54-3.2,23.11-4.88,34.65-1.51,10.35-3.15,20.69-4.73,31-.05.3-.16.6-.34,1.27a21.52,21.52,0,0,1-2.07-1.12c-2.55-1.8-5.07-3.64-7.61-5.44-.77-.54-1.58-1-2.78-1.76-8.25,54.76-15.94,109.21-23.81,163.56-4.54.95-52.31-1-57.34-2.38.33-2.54.57-5.14,1-7.7,3.2-17.85,6.53-35.68,9.67-53.54,1.65-9.36,2.92-18.79,4.5-28.16,2.42-14.34,5-28.65,7.43-43,1.74-10.16,3.41-20.33,5.08-30.5,1.47-8.91,2.88-17.82,4.35-26.73.38-2.35.57-2.49,2.93-2.52,2,0,4,.07,6,.06.84,0,1.68-.14,3.08-.27a17.38,17.38,0,0,0-1.7-2.4c-2-1.93-4.06-3.87-6.22-5.65q-41-33.81-82.11-67.51a5,5,0,0,1-2-5.33c1.8-10.8,3.5-21.61,5.34-32.39,2.26-13.15,4.65-26.28,6.93-39.42,1.74-10,3.34-20,5.12-30a6.74,6.74,0,0,0-1.44-6c-5.32-6.4-10.49-12.91-15.85-19.27q-17.73-21-35.57-41.89c-.87-1-1.69-2.11-2.61-3.27a5.11,5.11,0,0,1,3.11-.53c8.8-.15,17.6-.34,26.39-.37q26-.06,52.08.06c9.68,0,19.35.26,29,.42.78,0,1.55.14,2.64.25-.24,2.7-.4,5.23-.69,7.74q-1.27,11.43-2.65,22.86c-1.21,10.15-2.32,20.32-3.71,30.45-2,14.33-4.18,28.62-6.26,42.93q-2.21,15.18-4.31,30.38a41.66,41.66,0,0,0-.48,6.2c0,3.16,1,3.86,4.1,4.51,5.24,1.09,10.43,2.4,15.63,3.66,5,1.22,10.08,2.49,15.12,3.74l.24.06c3.32.6,3.84.34,4.33-2.91q1.67-11,3.16-22.06,2.13-15.68,4.16-31.37c1.06-8.16,2-16.33,3.06-24.5.77-6.18,1.57-12.36,2.37-18.68h48.38c0,1.82.15,3.64,0,5.43-1.38,14-2.76,28-4.28,42-1.61,14.85-3.34,29.69-5.07,44.54-.6,5.15-.94,10.38-2.08,15.42-2.71,12-3.81,24.14-5.05,36.3A79,79,0,0,0,302,285.1c.17,3.58.73,4.22,4.14,4.81,5,.86,10.08,1.45,15.33,2.18.53-3.08,1.12-5.88,1.47-8.71,1.38-10.93,2.77-21.87,4-32.83,1.63-14.69,3.09-29.4,4.63-44.1,1.18-11.13,2.39-22.25,3.55-33.38,1.4-13.43,2.8-26.86,4.11-40.3.94-9.54,1.76-19.1,2.6-28.65.77-8.75,1.48-17.52,2.26-26.27.21-2.28.29-2.34,2.62-2.39,8.55-.18,17.11-.41,25.66-.45,16.24-.07,32.48,0,48.72,0h2.6c0,3.3.09,6.32,0,9.34-.23,6.23-.48,12.46-.89,18.68-.45,6.86-1.13,13.7-1.63,20.56-.47,6.45-.83,12.92-1.24,19.38-.13,1.9-.28,3.8-.42,5.82H390.77a34.3,34.3,0,0,1,.13-6.56c.89-9.07,1.79-18.13,2.63-27.2.14-1.57,0-3.16,0-4.88H370.88c-.25,1.33-.6,2.7-.74,4.1-.54,5.25-1,10.5-1.5,15.75-.78,8.6-1.58,17.19-2.31,25.79-.59,7.09-1,14.19-1.64,21.28-.85,9.79-1.77,19.58-2.7,29.36-.63,6.52-1.34,13-2,19.56q-1.42,14.43-2.81,28.87c-.53,5.49-1,11-1.54,16.47-.35,3.41-.9,6.81-1.36,10.21-.06.48-.13,1-.19,1.43a1.37,1.37,0,0,0,1.43,1.76c1.67.12,3.34.33,5,.34,5.6,0,11.2,0,16.8,0a7.62,7.62,0,0,0,1.1-.16c.37-2.45.84-4.87,1.06-7.31.71-7.64,1.27-15.29,2-22.93.94-10.26,2-20.52,3-30.78a9.38,9.38,0,0,1,.2-1.18c.5-2.3.87-2.62,3.17-2.75.53,0,1.06-.09,2-.17-.64-.67-1-1.15-1.47-1.54-3.11-2.63-6.21-5.29-9.39-7.84a2.8,2.8,0,0,1-1.15-2.86c1.16-10.32,2.24-20.65,3.37-31,.19-1.72.5-3.43.81-5.49,1,.52,1.75.81,2.39,1.22,9.21,5.78,18.4,11.6,27.61,17.37A296.31,296.31,0,0,1,439.69,209c1.25,1,2.56,1.92,3.88,2.81.71.47,1.52.79,2.61,1.35a13.35,13.35,0,0,0,.72-2.63q.54-8.73,1-17.46c.59-12.14,1.13-24.28,1.75-36.42.26-4.86.66-9.72,1-14.59C450.72,140.87,450.93,139.7,451.16,138Zm55.48,83.38a4,4,0,0,0-2-3c-1.67-1.24-3.41-2.38-5.08-3.62-5.77-4.29-11.52-8.63-17.3-12.91-1.26-.94-2.63-1.73-4.12-2.7-.18,1.06-.38,1.84-.44,2.63-.51,7.25-1,14.5-1.51,21.75-.42,6-.89,12-1.36,17.93-.32,4-.89,8-1,11.94-.19,10.15-.16,20.3-.21,30.46a15.16,15.16,0,0,0,.15,1.54c3.52.47,21.59.33,23.37-.18,0-.6.08-1.23.09-1.87.17-6,.22-12,.53-18,.55-10.61,1.23-21.22,1.92-31.82.21-3.27.58-6.52,1-9.77.28-2.25.71-2.5,3-2.38C504.55,221.37,505.49,221.33,506.64,221.33Z"/><path class="cls-1" d="M1076.69,513.52c-19.9,1.59-39.45,2.25-59.2,3-.64-2.83-1.36-5.53-1.86-8.26-2.09-11.4-4.08-22.81-6.16-34.2-3-16.2-6-32.37-8.89-48.57-2.57-14.23-5-28.47-7.59-42.71-2.44-13.68-5-27.35-7.37-41s-4.69-27.24-7-40.86c-2.47-14.57-5-29.14-7.36-43.72q-2.89-17.5-5.61-35c-2-13.26-4-26.53-6-39.8-.7-4.66-1.35-9.33-2-14-.15-1.1-.17-2.21-.26-3.56,1.72-.17,3.29-.45,4.85-.45q22.8,0,45.59.17a9.43,9.43,0,0,1,1.31.17c.38,2.36.73,4.71,1.14,7,2.69,15.34,5.42,30.68,8.06,46,1.35,7.79,2.42,15.63,3.81,23.42,2.09,11.63,4.32,23.24,6.54,34.86,2.79,14.51,5.57,29,8.46,43.52,3.23,16.13,6.58,32.25,9.86,48.37,3.13,15.35,6.16,30.71,9.37,46,3.54,16.89,7.3,33.73,10.84,50.62,2.59,12.36,5,24.75,7.46,37.13.56,2.82,1.17,5.63,1.7,8.45C1076.55,511.14,1076.57,512.17,1076.69,513.52Z"/><path class="cls-1" d="M844.75,75.13h79.8c.27,1.75.61,3.54.81,5.34.45,4,.73,8.12,1.25,12.16.66,5.23,1.56,10.43,2.23,15.66,1,7.36,1.81,14.74,2.7,22.12s1.86,14.91,2.64,22.38c.45,4.36.63,8.76.86,13.15.13,2.55,0,5.12.23,7.67a2.83,2.83,0,0,1-1.33,2.81c-3.34,2.47-6.63,5-10.21,7.72.84.6,1.51,1.1,2.19,1.57,3.88,2.68,7.76,5.38,11.66,8a5,5,0,0,1,2.16,3.79c1.62,12.52,3.18,25.05,5,37.55,1.49,10.59,3.26,21.15,4.86,31.74,1.56,10.26,3.12,20.53,4.58,30.81,1,7,1.84,13.94,2.72,20.92.17,1.41.22,2.84.34,4.56-1.32.14-2.48.35-3.63.37-15,.2-30.07.44-45.1.55-11.92.09-23.84,0-35.76,0h-2.78c-.36-2.69-.73-5.2-1-7.71-1-8.73-2-17.46-3.09-26.19-1.2-10.24-2.43-20.47-3.63-30.7q-1.27-10.85-2.48-21.68-1.92-17.38-3.8-34.78c-.82-7.55-1.69-15.09-2.39-22.65-1.37-14.88-2.63-29.77-3.94-44.66-.95-10.82-1.94-21.64-2.85-32.47-.7-8.36-1.32-16.73-2-25.1C844.69,77.15,844.75,76.2,844.75,75.13Zm51.46,209.78a3.62,3.62,0,0,0,.67.14c5.2,0,10.4,0,15.59,0,2.08,0,4.16-.17,6.22-.38,1.74-.19,2.1-.6,1.93-2.34-.22-2.38-.58-4.76-.92-7.13-2-14.31-4.12-28.62-6.13-42.94a73,73,0,0,1-.65-8.36c-.06-2.43.58-2.91,3-3,1,0,2-.08,3.28-.13a7.87,7.87,0,0,0-3.32-3.22q-12.39-8-24.84-15.92a20.08,20.08,0,0,0-2.74-1.48,17.17,17.17,0,0,0-2.2-.64C885.55,203.62,894.85,281.48,896.21,284.91Zm9.1-111,.71-.4c-1.88-21.12-4.46-42.16-6.56-63.51-7.79.22-15.34-.4-23.08.67.1,1.8.14,3.38.29,5,.69,7.39,1.59,14.77,2.07,22.18a130.82,130.82,0,0,0,2.07,15.66,8.89,8.89,0,0,0,3.68,5.93Q894.89,166.65,905.31,173.87Z"/><path class="cls-1" d="M582.51,285.9h24.23V283c0-25.44,0-50.87,0-76.31,0-9.12.29-18.23.48-27.34,0-1,.23-2,.37-3.25a6.22,6.22,0,0,1,1.22.56c2.21,1.7,4.33,3.53,6.6,5.15,6,4.27,12,8.46,18.07,12.66a5.32,5.32,0,0,1,2.56,4.55c.19,6.63.67,13.26.79,19.89.28,14.71.37,29.42.61,44.14q.4,25.19.95,50.36c.3,14.79.72,29.58.94,44.37.23,15,.28,30.07.4,45.1,0,.63-.07,1.25-.12,2H549.69c0-2.73-.07-5.35,0-8,.29-10.14.64-20.29.93-30.44.11-3.76-.49-2.83,3-4.52,1.65-.81,3.31-1.6,4.94-2.44a6,6,0,0,0,1.78-1.2,9.25,9.25,0,0,1,7.07-3q8.51-.24,17-.21c7,0,14.07.19,21.11.28.13,0,.27-.12.67-.31.2-9.36.4-18.84.61-28.66-18.49-.68-36.83-.47-55.08-1.46-.74-3.66,2.54-181.9,3.42-186.58a4.39,4.39,0,0,1,.82.34c7.13,5,14.33,9.93,21.35,15.09,6.19,4.55,5.7,2.76,5.8,11.14.18,15,.06,29.92,0,44.88,0,6.72-.1,13.43-.16,20.15q-.22,26.52-.47,53C582.51,283.93,582.51,284.86,582.51,285.9Z"/><path class="cls-1" d="M658.62,138.05h81.87c0,.93.12,1.78.12,2.63,0,10.47,0,20.95.07,31.43,0,2.31.36,4.61.51,6.93a22.88,22.88,0,0,1-.13,2.47c-9.88.52-19.49-.44-29.3-.78v-7.37c-1.87-.54-18.07-.73-22.76-.29a9.55,9.55,0,0,0-.21,1.53c.1,3.43.19,6.87.37,10.3a9.4,9.4,0,0,0,3.64,7c1.18.95,2.38,1.88,3.63,2.75q19.62,13.8,39.26,27.59c2.09,1.47,4.09,3.08,6.19,4.53a5.72,5.72,0,0,1,2.54,4.4c.51,5.25,1,10.49,1.46,15.75q.86,9.9,1.61,19.82c.26,3.43.51,6.86.63,10.29.43,11.35.78,22.7,1.18,34,.14,4.08.33,8.15.49,12.23,0,.46,0,.92-.07,1.51H663c-.74-22.69-1.5-45.34-1.6-68.32,9.91-.32,19.66-1,29.53-.59,1.11,5,1.13,9.9,1.5,14.74s.52,9.71.77,14.75L718,285c-.51-10.37-1.58-20.51-2.43-30.72,2.51-.91,5.2.35,7.87-1.1-.92-.78-1.64-1.48-2.46-2-5.42-3.7-10.9-7.3-16.28-11q-21.84-15.24-43.61-30.56A2.82,2.82,0,0,1,659.7,207c-.07-7-.12-14.08-.34-21.11-.29-9.19-.77-18.37-1.08-27.56-.19-5.35-.24-10.71-.26-16.07A30,30,0,0,1,658.62,138.05Z"/><path class="cls-1" d="M359.72,430.63c1-.5,2.09-1.07,3.18-1.5,7.78-3.14,15.58-6.24,23.36-9.36s15.41-6.25,23.14-9.3a9.17,9.17,0,0,1,3.45-.58c8.23.19,16.46.64,24.69.66q92.38.22,184.76.32,32.52,0,65-.05c21.75-.06,43.5-.2,65.26-.31,11.11-.05,22.23,0,33.35-.18,15.43-.21,30.85-.58,46.28-.87,8.95-.16,17.91-.29,26.86-.47a14,14,0,0,1,4.92.8q26.19,9,52.39,17.9c.81.28,1.61.59,2.4.88l0,.51c-2,.15-4,.39-6,.45-8.47.25-16.94.45-25.42.66-12.86.32-25.73.67-38.6.93q-27.71.56-55.4,1c-13.27.2-26.55.38-39.82.47q-42,.3-84,.48-60.7.21-121.41.25c-26.15,0-52.3-.2-78.45-.33q-16.68-.09-33.35-.26c-12.55-.11-25.11-.16-37.66-.37-12-.21-24-.58-36-.9-.94,0-1.89-.2-2.83-.3Z"/><path class="cls-1" d="M830.54,97.09c.38,3,.83,5.79,1.1,8.64.74,7.87,1.41,15.76,2.08,23.64,1.08,12.57,2.1,25.16,3.22,37.73,1.06,11.78,2.25,23.54,3.31,35.31.21,2.3,0,4.64.15,7,.29,4,.77,7.95,1.12,11.93.47,5.41.84,10.83,1.34,16.24.84,9,1.7,18,2.66,27s2.06,17.77,3.06,26.66q1.38,12.15,2.65,24.3c.29,2.76.39,5.53.58,8.45H813c-1.06-2.44-1.08-5-1.33-7.53-1.37-13.83-2.68-27.67-4-41.51-1.25-13-2.58-25.91-3.7-38.88-1.12-12.82-2-25.66-3-38.48-.94-11.22-2.11-22.43-3.07-33.65-.23-2.77,0-5.57,0-8.57l-23.49-1.77c-1-4.11-1.92-8.07-2.84-12-.82-3.5-1.59-7-2.43-10.51a6.35,6.35,0,0,1,1.19-5.85c1.21-1.49,2.29-3.09,3.53-4.55,6.34-7.42,12.72-14.8,19.06-22.22a3.38,3.38,0,0,1,2.8-1.43c11.2.06,22.4,0,33.59,0C829.57,97,829.89,97,830.54,97.09Z"/><path class="cls-1" d="M946.46,73.07h120.06a13.16,13.16,0,0,1-.89,1.3c-17.47,19.17-33.42,39.6-50,59.53-3,3.62-6.14,7.17-9.15,10.8a3.32,3.32,0,0,1-2.86,1.32c-13-.09-25.92-.1-38.87-.18-2.48,0-4.95-.23-7.43-.4-2-.14-2.05-.16-2.36-2.24-.79-5.21-1.51-10.43-2.22-15.66-1.37-10.21-2.77-20.42-4-30.64-.73-5.87-1.23-11.76-1.8-17.64C946.73,77.28,946.62,75.3,946.46,73.07Z"/><path class="cls-1" d="M627.9,528.5c.43-4.44.46-9,1.37-13.32a30.38,30.38,0,0,1,11.15-18c5.27-4.18,11.19-5.46,17.8-4.57A23.61,23.61,0,0,1,674,501.81,43.54,43.54,0,0,1,682.82,522a42.64,42.64,0,0,1-4.71,28.3,28.74,28.74,0,0,1-7.25,8.86c-7.5,6-15.71,7.18-24.46,3.18a27.54,27.54,0,0,1-12.69-11.65c-4-6.89-6.5-14.08-5.29-22.23Zm38,0c-.28-2.81-.38-4.81-.7-6.77a12.89,12.89,0,0,0-5.67-9.06c-4.06-2.68-8.26-1.95-10.68,2.27-4.53,7.87-4.94,16-.69,24.19a11.59,11.59,0,0,0,4.37,4.66c3,1.83,6.36,1.54,8.67-1.15a14.89,14.89,0,0,0,3.05-5.31A78.7,78.7,0,0,0,665.87,528.48Z"/><path class="cls-1" d="M707.79,561.8c-3.5.3-6.74.61-10,.84a29.1,29.1,0,0,1-4.07,0c-1.74-.12-2.25-.57-2.49-2.31a52.84,52.84,0,0,1-.48-5.48c-.4-12.23-.75-24.45-1.15-36.67-.23-6.79-.52-13.58-.77-20.37,0-.71,0-1.43,0-2.15a2.08,2.08,0,0,1,2-2.23,44.49,44.49,0,0,1,5-.4c6.23.09,12.46.2,18.68.46a20.85,20.85,0,0,1,9.21,2.42,19.33,19.33,0,0,1,9.49,11.86A45.35,45.35,0,0,1,734.52,527a22.17,22.17,0,0,1-4.65,11.15,2.8,2.8,0,0,0-.3,3.46c2.65,5.28,5.2,10.62,7.76,15.95.51,1.07.91,2.19,1.52,3.65a16.83,16.83,0,0,1-2.61.48c-5.19,0-10.38,0-15.69,0-.39-.87-.74-1.57-1-2.29-1.34-3.42-2.65-6.86-4-10.27-.42-1-.91-2-1.41-3a3.62,3.62,0,0,0-3.68-2.16c-.72,0-1.44,0-2.3,0-.65,1.9-.26,3.81-.32,5.69s0,4,0,6Zm-.5-35.24c2.12.05,4.1.22,6.07.12a5.09,5.09,0,0,0,5.07-4.3,31,31,0,0,0,.31-7.34,4.54,4.54,0,0,0-2.9-3.83,12.08,12.08,0,0,0-7.69-1c-1.71.35-2.19.82-2.11,2.61.13,3.1.42,6.2.68,9.29C706.84,523.52,707.08,524.92,707.29,526.56Z"/><path class="cls-1" d="M490.77,544.93c-.49,5.75-.95,11.23-1.41,16.74-1.58.44-40.87.56-43.84.07,0-.58,0-1.2,0-1.81q.93-13.27,1.88-26.55,1.35-18.76,2.73-37.54c.14-1.95.33-2.22,2.28-2.34,3.59-.24,7.19-.45,10.78-.47,6.88-.06,13.76,0,20.64.08,2.62,0,5.23.27,8.13.44a122.49,122.49,0,0,1-.54,16.33l-25.05.63v7.94l22.09.65a12.48,12.48,0,0,1,.19,1.46c0,3.52.06,7,0,10.55s-1.09,4.49-4.45,4.66c-4.63.23-9.27.21-13.9.34a22,22,0,0,0-3.81.36c-1.9.39-2.53,1.19-2.74,3.12a9.89,9.89,0,0,0,0,1.44c0,1.88.42,2.52,2.23,2.81a63.08,63.08,0,0,0,7.85.89c4.8.18,9.6.14,14.4.2Z"/><path class="cls-1" d="M566.63,517.23c-1.81-1.09-3.19-2-4.68-2.78-3.34-1.68-6.72-3.32-10.14-4.83a3.92,3.92,0,0,0-2.76-.07c-2.44,1-2.77,3.41-.72,5.11a27.91,27.91,0,0,0,4.2,2.76c2.44,1.35,5,2.46,7.41,3.91a44.32,44.32,0,0,1,6.43,4.58c5.14,4.56,6.74,10.49,6,17.15a29,29,0,0,1-2.61,9.67c-4.34,8.9-13.19,12.4-21.59,11.56-7.48-.75-13.92-4-19.74-8.55a16.41,16.41,0,0,1-1.88-1.85A2.67,2.67,0,0,1,526,551,84.26,84.26,0,0,1,532,536.71a7.7,7.7,0,0,1,.64-.77,26.31,26.31,0,0,1,2.39,1.91,31.72,31.72,0,0,0,12,7.33,13.43,13.43,0,0,0,4.69.62,3.11,3.11,0,0,0,3.21-2.39,3.38,3.38,0,0,0-1.45-3.79,44.54,44.54,0,0,0-5-2.89c-1.93-1-4-1.71-5.89-2.67a41.3,41.3,0,0,1-4.58-2.61c-5.42-3.57-8-8.71-8.25-15.14a26,26,0,0,1,2-11.94c4-8.72,12.69-13.36,22.35-12.15,5.68.7,10.77,2.88,15.72,5.54,1.63.88,2.73,2.11,2.24,4A92.41,92.41,0,0,1,566.63,517.23Z"/><path class="cls-1" d="M796.19,534.16c1.84,1.2,3.47,2.19,5,3.3a30.93,30.93,0,0,0,10.45,5.19,10.8,10.8,0,0,0,5.44.35c2.47-.63,3.29-3,1.62-5a8.17,8.17,0,0,0-2.22-1.79c-1.6-.89-3.27-1.68-5-2.41a45.77,45.77,0,0,0-4.92-1.89c-10.45-3.21-14.89-11-15.77-21.19-.49-5.67,2-10.56,5.58-14.89a15.19,15.19,0,0,1,12.38-5.69c6.64,0,13.06.92,19.07,3.9.71.35,1.41.74,2.11,1.13a4,4,0,0,1,2.16,4.42c-.88,4.45-1.9,8.87-2.93,13.63a28.6,28.6,0,0,1-3.42-.9c-2.6-1-5.1-2.33-7.73-3.26a53.62,53.62,0,0,0-6.92-1.79,2.14,2.14,0,0,0-2.66,1.07,2.5,2.5,0,0,0,.68,2.86,13,13,0,0,0,3,2.37c2.4,1.25,4.93,2.27,7.38,3.43s5.26,2.35,7.72,3.81a18.14,18.14,0,0,1,9.22,15.37,59.34,59.34,0,0,1-.5,11.22c-.67,4.83-3.74,8.22-7.86,10.61A24.11,24.11,0,0,1,814,561c-7-.5-13.16-3.16-19-6.7-3.16-1.91-3.89-3.38-3-7,.94-3.87,2.21-7.66,3.37-11.48A11.35,11.35,0,0,1,796.19,534.16Z"/><path class="cls-1" d="M579.78,494.38c.34-.23.41-.31.47-.31,9.11-.14,18.23-.49,27.28.8a16.16,16.16,0,0,1,12.26,8.66,26.58,26.58,0,0,1,3,10.29,43.32,43.32,0,0,1-1.42,17.32c-2.67,8.83-8.93,13.51-18.29,13.76-2.3.06-4.61,0-7.23,0-.1,3.19-.18,6.2-.28,9.2s-.25,6-.38,9.21H579.4c-.07-.59-.16-1.12-.17-1.66-.14-15.82-.31-31.65-.38-47.47,0-4.87.2-9.75.39-14.62C579.31,497.83,579.6,496.09,579.78,494.38Zm27.38,24.94c-.15-1.16-.27-2.27-.44-3.37a4.79,4.79,0,0,0-2.15-3.31,9.16,9.16,0,0,0-6.63-1.44c-1,.14-1.91.64-1.9,1.8,0,4.22.1,8.45.29,12.66a2.52,2.52,0,0,0,1.31,1.79,6.51,6.51,0,0,0,9-4.62C606.89,521.67,607,520.47,607.16,519.32Z"/><path class="cls-1" d="M753.53,511H740.34a12,12,0,0,1-.47-1.94c-.28-4.22-.6-8.44-.74-12.67-.09-2.65.14-2.86,2.85-3,11.1-.38,22.2-.68,33.3-1,1.67-.05,3.34-.23,5-.29,2.36-.08,2.83.23,3.09,2.55.56,5,1,10,1.5,15.18-1.15.05-2,.11-2.85.13-2.8.09-5.6.07-8.38.27-2.19.15-2.71.74-2.6,2.87.44,8.21,1,16.42,1.43,24.63q.64,11.13,1.24,22.25c0,.55,0,1.11-.09,2-5.41.06-10.77-.52-16.33-.49C756.12,544.6,755.28,527.87,753.53,511Z"/><path class="cls-1" d="M499.83,525.06c6.95.15,13.47-.31,20.19.41.48,4.62-.44,8.91-.4,13.52-6.8-.11-13.3.38-20-.57C498.92,534,499.81,529.67,499.83,525.06Z"/><path d="M506.64,221.33c-1.15,0-2.09,0-3,0-2.25-.12-2.68.13-3,2.38-.42,3.25-.79,6.5-1,9.77-.69,10.6-1.37,21.21-1.92,31.82-.31,6-.36,12-.53,18,0,.64-.06,1.27-.09,1.87-1.78.51-19.85.65-23.37.18a15.16,15.16,0,0,1-.15-1.54c.05-10.16,0-20.31.21-30.46.08-4,.65-8,1-11.94.47-6,.94-11.95,1.36-17.93.52-7.25,1-14.5,1.51-21.75.06-.79.26-1.57.44-2.63,1.49,1,2.86,1.76,4.12,2.7,5.78,4.28,11.53,8.62,17.3,12.91,1.67,1.24,3.41,2.38,5.08,3.62A4,4,0,0,1,506.64,221.33Z"/><path d="M896.21,284.91c-1.36-3.43-10.66-81.29-10.13-85.38a17.17,17.17,0,0,1,2.2.64,20.08,20.08,0,0,1,2.74,1.48q12.43,7.93,24.84,15.92a7.87,7.87,0,0,1,3.32,3.22c-1.3.05-2.29.11-3.28.13-2.4.06-3,.54-3,3a73,73,0,0,0,.65,8.36c2,14.32,4.09,28.63,6.13,42.94.34,2.37.7,4.75.92,7.13.17,1.74-.19,2.15-1.93,2.34-2.06.21-4.14.36-6.22.38-5.19,0-10.39,0-15.59,0A3.62,3.62,0,0,1,896.21,284.91Z"/><path d="M905.31,173.87q-10.41-7.25-20.82-14.51a8.89,8.89,0,0,1-3.68-5.93,130.82,130.82,0,0,1-2.07-15.66c-.48-7.41-1.38-14.79-2.07-22.18-.15-1.58-.19-3.16-.29-5,7.74-1.07,15.29-.45,23.08-.67,2.1,21.35,4.68,42.39,6.56,63.51Z"/><path d="M665.87,528.48a78.7,78.7,0,0,1-1.65,8.83,14.89,14.89,0,0,1-3.05,5.31c-2.31,2.69-5.63,3-8.67,1.15a11.59,11.59,0,0,1-4.37-4.66c-4.25-8.17-3.84-16.32.69-24.19,2.42-4.22,6.62-4.95,10.68-2.27a12.89,12.89,0,0,1,5.67,9.06C665.49,523.67,665.59,525.67,665.87,528.48Z"/><path d="M707.29,526.56c-.21-1.64-.45-3-.57-4.45-.26-3.09-.55-6.19-.68-9.29-.08-1.79.4-2.26,2.11-2.61a12.08,12.08,0,0,1,7.69,1,4.54,4.54,0,0,1,2.9,3.83,31,31,0,0,1-.31,7.34,5.09,5.09,0,0,1-5.07,4.3C711.39,526.78,709.41,526.61,707.29,526.56Z"/><path d="M607.16,519.32c-.18,1.15-.27,2.35-.55,3.51a6.51,6.51,0,0,1-9,4.62,2.52,2.52,0,0,1-1.31-1.79c-.19-4.21-.25-8.44-.29-12.66,0-1.16.86-1.66,1.9-1.8a9.16,9.16,0,0,1,6.63,1.44,4.79,4.79,0,0,1,2.15,3.31C606.89,517.05,607,518.16,607.16,519.32Z"/></g></g></svg>