<?xml version="1.0" encoding="utf-8"?>
<!-- Generator: Adobe Illustrator 25.2.1, SVG Export Plug-In . SVG Version: 6.00 Build 0)  -->
<svg version="1.1" id="Camada_1" xmlns="http://www.w3.org/2000/svg" xmlns:xlink="http://www.w3.org/1999/xlink" x="0px" y="0px"
	 viewBox="0 0 527 766" style="enable-background:new 0 0 527 766;" xml:space="preserve">
<g transform="translate(0.000000,766.000000) scale(0.100000,-0.100000)">
	<path fill="white" d="M2699.4,6746.9c-97-22-129-34-215-79c-52-28-117-55-144-61c-32-7-81-32-145-76c-87-59-431-242-456-242c-5,0-22-6-37-14
		c-14-8-45-17-67-21c-23-4-43-11-47-16c-3-5-15-9-27-9s-44-11-72-25c-27-13-68.6-17.2-87-25c-20.4-8.7-33.9-9.9-43-10
		c-3-5-27-10-53-10c-49,0-185-29-262-56c-73-26-287-134-306-155c-16.4-6.7-23-19-30-19s-33-19-57-42c-24-24-72-64-106-90
		c-61-47-119-119-182-228c-18-30-46-73-64-95c-17-22-40-56-51-75c-37-66-96-222-104-279c-5-31-16-89-24-129c-23-104-23-563-1-666
		c9-39,20-91,26-116c15-72,103-240,157-300c57-64,86-120,102-195c13-60,10-81-41-301c-30-134-31-145-26-304c9-267,46-360,208-517
		c75-74,138-127,152-129c7-1,43-16,81-34c38-17,90-35,115-40s66-16,91-25c46-18,175-30,311-29c55,0,98,8,162,29c74,25,95,37,144,85
		c82,79,141,155,174,225c39,82,39,99-3,91c-18-3-100-10-181-16c-81-5-158-12-171-16c-40-10-161,13-222,42c-74,35-143,99-204,189
		c-26,39-59,81-74,94c-14,14-26,29-26,34s-12,23-26,40s-58,96-99,176c-67,136-83.5,260.3-105,313c-5.7,14-9,41-19,61
		c-18,35-19,55-14,250c2,117,6,289,7,382c3,178,7,201,71,410c61,200,155,411,239,535c64,94,280,312,366,370c28,19,64,46,78,59
		c35,31,120,86,152,97c14,5,52,26,85,47c165,104,250,145,392,191c71,22,231,55,323,66c41,5,94,16,118,25c29,10,91,16,192,19
		c82,2,153,6,158,9c9,7,167-17,216-32c17-5,53-12,79-16c53-7,166.9-15.6,232.9-49.6c38.3-3.4,57.2-40.7,94.1-55.4
		c79-8,153-40,239-104c35-25,93-62,130-81c36-20,106-66,155-103s105-76,123-87c19-12,45-35,59-52c13-17,44-43,68-57
		c25-14,61-46,81-71c20-24,45-47,56-50c35-11,154-193,174-265c4-14,19-41,34-60c16-19,45-82,65-140c21-58,49-136,62-174
		c21-59,26-101,38-310c8-148,10-270,5-316c-4-41-8-138-8-216c-1-201-14-239-138-395c-34-42-64-85-67-97c-8-24-70-81-113-102
		c-15-8-50-28-78-45c-88-53-138-73-245-98c-141-33-253-42-324-26c-31,7-59,9-63,6c-3-4,4-29,16-56c16-33,63-88,145-169
		c152-151,213-185,344-190c54-3,87,0,97,8c8,7,30,13,49,15s72,14,118,28s95,27,109,31c14,3,36,15,50,27c13,12,44,31,69,42
		c50,22,114,73,199,158c31,31,67,59,79,63s22,11,22,16s22,38,50,74c39,51,55,84,75,153c14,48,32,106,41,128c12,30,15,78,15,217
		c-1,304-26,483-83,608c-51,111-56,140-52,281c2,74,11,163,19,199c15,66,27,129,45,231s12,236-14,333c-14,48-23,93-20,99
		c6,18-16,74-70,175c-48,90-140,204-216,269c-37,31-152,100-235,141c-61,30-62,31-113,65c-23,15-50,27-59,27c-10,0-37,9-61,20
		c-23,10-59,22-80,26c-20,3-51,15-68,25c-17,11-40,19-51,19c-12,0-26,7-33,14c-6,8-28,20-48,26s-46,15-57,20c-155,68-160,71-310,205
		c-130,116-168,140-276,169c-113,30-205,59-274,87C3047.4,6754.9,2781.4,6765.9,2699.4,6746.9z"/>
	<path fill="white" d="M2020,4929.1c-26-38-43-80-43-103c0-18,31-82,100-205c12-22,45-74,72-115c28-41,65-104,83-141c17-36,43-81,57-100
		c14-18,36-52,48-74c29-56,91-164,115-202c15-25,25-31,40-27c11,4,30.3,6.1,31.3,10.1c10.2,2.5,18.9,7.1,35.5,17.1
		c22.8,6.8,44.7,20.1,54.2,27.7c13.1,7.2,27.2,8.8,35.2,15.8c7.5,6.5,18.8,8.2,32.8,14.2l24,11l-43,60c-24,32-59,85-76,116
		c-18,31-57,89-87,129c-29,39-65,94-80,122c-34,62-125,196-203,298c-32,42-56,82.8-59,88c-10.2,18-80.7,69.1-105.7,69.1
		C2046.3,4940.2,2037.5,4940.3,2020,4929.1z"/>
	<path fill="white" d="M2531.8,4936.5c-7.1-13.2-11.9-19.3-22-36.7c-11.4-15.4-15.3-41.9-12.3-54.9c15-60,158-429,185-476c32-56,141-261,159-298
		c0-2,19,8,42,22c22,14,51,21.3,61,26c11.1,5.2,14.7,5.2,20,8c7.9,4.2,57,44,85,52c24,8,22,29-9,74c-13,19-49,88-81,153
		s-71,136-86,159s-39,65-53,95c-27,58-67,131-77,139c-3,3-24,39-46,80l-41,75l-56,3C2547.4,4959.9,2542.2,4955.9,2531.8,4936.5z"/>
	<path fill="white" d="M1617.4,4506.9c-17-24-34-88-27-100c37-65,135-199,177-241c29-29,76-81,105-117c60-75,49-63,132-143c36-34,83-84,105-111
		c21-26,41-43,43-37s9,11,16,11s41,23,75,50c76,61,91,76,91,89c0,5-39,43-87,83c-94,77-235,216-268,263c-25,35-234,244-257,256
		C1697.4,4522.9,1628.4,4520.9,1617.4,4506.9z"/>
	<path fill="white" d="M3632.4,4490.9c-45-26-116-84-200-164c-21-21-41.6-36.8-45.3-40.1c-3.4-3-2.2-4-7.8-9c-4.5-4-22.9-31.9-44.9-57.9
		s-40-51-40-55s-8-20-18-34c-48-71-101-210-112-293c-5-46-15-109-21-139c-14-75-40.4-205.3-41.4-283.3c-9.8-42.4-7.7-58.9-8.6-80.8
		c-4.9-30.6-13-83.9-17-359.9c-3-285-2-332,17-450c19-123,59-404,96-681c9-66,21-161,25-211c5-51,16-109,24-129c16-38,20-55,51-240
		c14-79,15-107,6-132c-11-29-11-52,3-213c5-61,13-64,147-62c95,1,139,6,189,22c100,31,106,38,93,107c-36,192-44,226-53,243
		c-5,10-10,46-10,80c0,33-6,73-14,88c-7,15-16,68-20,117c-9,119-83,566-147,885l-51,255l-4,235c-7,390-6,541,5,633
		c6,48,16,126,21,175c6,48,13,94,16,102s9,47,14,87c14,107,63,203,143,279c35,33,72,74,82,92c11,18,23,32,28,32c4,0,20,12,35,26
		s37,30,50,35c12,4,22,16,22,24c0,22-28,73-56,104c-13,14-24,29-24,33C3764.4,4528.9,3676.4,4515.9,3632.4,4490.9z"/>
	<path fill="white" d="M1487.4,3961.9c-13-14-23-32-23-39c0-19,52-77,217-241c84-84,153-158,153-166s12-27,26-42s39-60,54-99c16-39,38-89,50-111
		c11-21,20-45,20-53c0-7,10-32,22-55c55-109,95.4-265.1,96.4-421.1c5.9-48.4,4.6-117.9,3.6-160.9c-2.4-66.8-2.3-56.9-3.4-94.9
		c-1.4-36.8-16.6-108.1-16.6-482.1c0-283-20.6-433.2-18.5-457.2c-6-15-7.5-83.8-13.5-148.8c-6-64-15-166-21-227c-6-60-13-135-16-166
		c-6-70,11-129,37-129c10,0,21-3,23-8c3-4,91-5,196-2c198,5,228,12,201,45c-9,11-11,33-5,83c4,37,6,96,4,132c-5,103,9.5,226.1,6,270
		c-1.5,19.4,2,118-5,220s-13,337-15,520c-2,365-13.5,671.7-31.5,732.7c-5.5,25.1-3.7,35.2-5.5,42.2c-1.5,12.6-9,44.6-8.6,42.9
		c-8,17-15.4,45.2-23.4,67.2c-46,129-47,131-116,285c-28,63-65,137-81,163c-16,27-33.4,58.9-39.8,76.8c-6.9,11-13.9,18.8-22.7,33.1
		c-29.4,33.7-130.5,94.1-197.5,157.1c-29,28-86,70-93,70c-3,0-16,11-30,23c-22,21-60,45-224,144
		C1538.4,3994.9,1514.4,3993.9,1487.4,3961.9z"/>
</g>
</svg>
